v -0.172352 -0.172352 0.172352
v -0.172352 0.172352 0.172352
v -0.172352 -0.172352 -0.172352
v -0.172352 0.172352 -0.172352
v 0.172352 -0.172352 0.172352
v 0.172352 0.172352 0.172352
v 0.172352 -0.172352 -0.172352
v 0.172352 0.172352 -0.172352
vn -1.0000 -0.0000 -0.0000
vn -0.0000 -0.0000 -1.0000
vn 1.0000 -0.0000 -0.0000
vn -0.0000 -0.0000 1.0000
vn -0.0000 -1.0000 -0.0000
vn -0.0000 1.0000 -0.0000
vt 0.625000 0.000000
vt 0.375000 0.250000
vt 0.375000 0.000000
vt 0.625000 0.250000
vt 0.375000 0.500000
vt 0.625000 0.500000
vt 0.375000 0.750000
vt 0.625000 0.750000
vt 0.375000 1.000000
vt 0.125000 0.750000
vt 0.125000 0.500000
vt 0.875000 0.500000
vt 0.625000 1.000000
vt 0.875000 0.750000
f 2/1/1 3/2/1 1/3/1
f 4/4/2 7/5/2 3/2/2
f 8/6/3 5/7/3 7/5/3
f 6/8/4 1/9/4 5/7/4
f 7/5/5 1/10/5 3/11/5
f 4/12/6 6/8/6 8/6/6
f 2/1/1 4/4/1 3/2/1
f 4/4/2 8/6/2 7/5/2
f 8/6/3 6/8/3 5/7/3
f 6/8/4 2/13/4 1/9/4
f 7/5/5 5/7/5 1/10/5
f 4/12/6 2/14/6 6/8/6
s 1 1.5 2
        t 0 2 -2 #Translação
x 30 #Rotação de 30 graus no eixo X
y -45 #Rotação de -45 graus no eixo Y
z 22.6 #Rotação de 22.6 gruas no eixo Z
c 2 3 0 #Cisalhamento no eixo Z com fator 2 em X e 3 em Y
c 0 2.5 4 #Cisalhamento no eixo X com fator de 2.5 em Y e 4 em Z
e 1 1 0 #Espelhamento em relação ao plano XY
e 1 0 1 #Espelhamento em relação ao plano XZ
e 0 1 1 #Espelhamento em relação ao plano YZ